<?xml version="1.0" encoding="UTF-8" standalone="no"?>
<!-- Created with Inkscape (http://www.inkscape.org/) -->

<svg
   xmlns:dc="http://purl.org/dc/elements/1.1/"
   xmlns:cc="http://creativecommons.org/ns#"
   xmlns:rdf="http://www.w3.org/1999/02/22-rdf-syntax-ns#"
   xmlns:svg="http://www.w3.org/2000/svg"
   xmlns="http://www.w3.org/2000/svg"
   xmlns:sodipodi="http://sodipodi.sourceforge.net/DTD/sodipodi-0.dtd"
   xmlns:inkscape="http://www.inkscape.org/namespaces/inkscape"
   version="1.1"
   width="540.30847"
   height="173.21912"
   id="svg2816"
   xml:space="preserve"
   inkscape:version="0.48.4 r9939"
   sodipodi:docname="FIFA logo.svg"><metadata
     id="metadata34"><rdf:RDF><cc:Work
         rdf:about=""><dc:format>image/svg+xml</dc:format><dc:type
           rdf:resource="http://purl.org/dc/dcmitype/StillImage" /></cc:Work></rdf:RDF></metadata><sodipodi:namedview
     pagecolor="#ffffff"
     bordercolor="#666666"
     borderopacity="1"
     objecttolerance="10"
     gridtolerance="10"
     guidetolerance="10"
     inkscape:pageopacity="0"
     inkscape:pageshadow="2"
     inkscape:window-width="1280"
     inkscape:window-height="962"
     id="namedview32"
     showgrid="false"
     fit-margin-top="0"
     fit-margin-left="0"
     fit-margin-right="0"
     fit-margin-bottom="0"
     inkscape:zoom="0.5"
     inkscape:cx="451.15445"
     inkscape:cy="19.231794"
     inkscape:window-x="-8"
     inkscape:window-y="-8"
     inkscape:window-maximized="1"
     inkscape:current-layer="svg2816" /><defs
     id="defs2820"><linearGradient
       x1="0"
       y1="0"
       x2="1"
       y2="0"
       id="linearGradient2838"
       gradientUnits="userSpaceOnUse"
       gradientTransform="matrix(0,-556,-556,0,460.05,606.639)"
       spreadMethod="pad"><stop
         id="stop2840"
         style="stop-color:#0095d5;stop-opacity:1"
         offset="0" /><stop
         id="stop2842"
         style="stop-color:#003768;stop-opacity:1"
         offset="1" /></linearGradient><linearGradient
       x1="0"
       y1="0"
       x2="1"
       y2="0"
       id="linearGradient2930"
       gradientUnits="userSpaceOnUse"
       gradientTransform="matrix(0,612.126,612.126,0,450.816,12.874)"
       spreadMethod="pad"><stop
         id="stop2932"
         style="stop-color:#003768;stop-opacity:1"
         offset="0" /><stop
         id="stop2934"
         style="stop-color:#0095d5;stop-opacity:1"
         offset="1" /></linearGradient></defs><g
     id="g3010"
     style="fill:#093697;fill-opacity:1"
     transform="translate(-253.06906,-187.79274)"><g
       style="fill:#093697;fill-opacity:1"
       id="g2826"
       transform="matrix(2.6829652,0,0,-2.6829652,-1160.0479,569.40838)"><g
         style="fill:#093697;fill-opacity:1"
         id="g3016"
         transform="matrix(3.0279789,0,0,3.0279789,-1773.2259,-155.95884)"><g
           style="fill:#093697;fill-opacity:1"
           id="g2880"
           transform="translate(759.558,98.48)"><path
             inkscape:connector-curvature="0"
             style="fill:#093697;fill-opacity:1;fill-rule:evenodd;stroke:none"
             id="path2882"
             d="m 0,0 0,-21.32 6.734,0 0,7.698 4.679,0 1.819,4.66 -6.498,0 0,4.326 7.909,0 L 16.368,0 0,0" /></g><g
           style="fill:#093697;fill-opacity:1"
           id="g2884"
           transform="translate(777.985,98.48)"><path
             inkscape:connector-curvature="0"
             style="fill:#093697;fill-opacity:1;fill-rule:evenodd;stroke:none"
             id="path2886"
             d="m 0,0 -0.012,-21.32 6.656,0 L 6.644,0 0,0" /></g><g
           style="fill:#093697;fill-opacity:1"
           id="g2888"
           transform="translate(810.749,84.124)"><path
             inkscape:connector-curvature="0"
             style="fill:#093697;fill-opacity:1;fill-rule:evenodd;stroke:none"
             id="path2890"
             d="M 0,0 2.564,8.877 5.22,0 0,0 z m 6.128,14.356 -6.911,0 -7.663,-21.322 6.433,0 0.828,2.867 7.499,0 0.867,-2.867 6.63,0 -7.683,21.322" /></g><g
           style="fill:#093697;fill-opacity:1"
           id="g2892"
           transform="translate(789.225,98.48)"><path
             inkscape:connector-curvature="0"
             style="fill:#093697;fill-opacity:1;fill-rule:evenodd;stroke:none"
             id="path2894"
             d="m 0,0 0,-21.32 6.73,0 0,7.698 4.674,0 1.832,4.66 -6.506,0 0,4.326 7.912,0 L 16.38,0 0,0" /></g><g
           style="fill:#093697;fill-opacity:1"
           id="g2896"
           transform="translate(823.148,96.207)"></g></g></g></g></svg>